<svg width="120" height="40" viewBox="0 0 120 40" fill="none" xmlns="http://www.w3.org/2000/svg">
<rect width="40" height="40" rx="3.2" fill="url(#paint0_linear_162_2987)"/>
<path d="M19.7411 18.7511L22.7792 16.9924L20.7597 15.8189L19.7411 16.4059V18.7511Z" fill="#90A7FF"/>
<path d="M25.3907 18.5112L27.3998 19.6851L19.4598 24.2651L17.3998 23.1451L25.3907 18.5112Z" fill="white"/>
<path d="M17.4 15.06V31.2L19.42 32.38L27.42 27.74L25.42 26.58L19.5019 30L19.4 16.2L27.42 11.58L25.42 10.42L17.4 15.06Z" fill="white"/>
<path d="M14.9772 13.5776L14.9772 29.7976L17.079 31.0111V14.8673L25.1206 10.2216L22.9641 8.97347L14.9772 13.5776Z" fill="white"/>
<path d="M12.6152 12.2318V28.4118L14.6552 29.5918V13.4118L22.64 8.78526L20.6296 7.61792L12.6152 12.2318Z" fill="white"/>
<path d="M19.8056 29.4234L25.0893 26.3875L23.0813 25.2195L19.8055 27.1223L19.8056 29.4234Z" fill="white"/>
<path d="M19.7936 26.7482L22.7677 25.0367L20.7419 23.8579L19.7936 24.4132V26.7482Z" fill="white"/>
<path d="M19.7416 21.3939L25.0848 18.3141L23.1048 17.1741L19.7416 19.1V21.3939Z" fill="#CCE3FF"/>
<path d="M52.0158 28.5V11.58H62.6478V14.22H53.7918L55.1118 12.612V27.492L53.7918 25.86H62.6958V28.5H52.0158ZM54.0318 20.724V18.084H61.0398V20.724H54.0318ZM68.3312 28.5V11.58H75.2192C76.4672 11.58 77.5312 11.78 78.4112 12.18C79.2912 12.58 79.9632 13.148 80.4272 13.884C80.8912 14.604 81.1232 15.476 81.1232 16.5C81.1232 17.524 80.8912 18.404 80.4272 19.14C79.9632 19.876 79.2912 20.444 78.4112 20.844C77.5312 21.244 76.4672 21.444 75.2192 21.444H70.6352V18.9H74.9792C75.9552 18.9 76.7072 18.708 77.2352 18.324C77.7632 17.924 78.0272 17.316 78.0272 16.5C78.0272 15.684 77.7632 15.084 77.2352 14.7C76.7072 14.316 75.9552 14.124 74.9792 14.124H70.5632L71.4272 13.236V28.5H68.3312ZM83.2355 26.484C83.6675 25.94 84.0275 25.38 84.3155 24.804C84.6195 24.212 84.8675 23.564 85.0595 22.86C85.2515 22.14 85.3955 21.34 85.4915 20.46C85.5875 19.564 85.6515 18.548 85.6835 17.412L85.8995 11.58H97.6835V26.676H94.5635V14.34H88.0835L88.6595 13.836L88.5155 17.532C88.4835 18.7 88.4195 19.732 88.3235 20.628C88.2275 21.508 88.0995 22.292 87.9395 22.98C87.7795 23.652 87.5715 24.268 87.3155 24.828C87.0755 25.388 86.7795 25.94 86.4275 26.484H83.2355ZM84.0755 28.5V25.74H97.5155V28.5H84.0755ZM84.8435 31.62H81.7715V25.74H85.7795V28.5H84.8435V31.62ZM96.8435 31.62V28.5H95.9075V25.74H99.8915V31.62H96.8435ZM111.419 28.908C109.787 28.908 108.347 28.54 107.099 27.804C105.851 27.068 104.883 26.036 104.195 24.708C103.507 23.38 103.163 21.828 103.163 20.052C103.163 18.708 103.355 17.5 103.739 16.428C104.139 15.34 104.699 14.404 105.419 13.62C106.155 12.836 107.027 12.236 108.035 11.82C109.059 11.404 110.179 11.196 111.395 11.196C112.707 11.196 113.859 11.388 114.851 11.772C115.843 12.156 116.667 12.724 117.323 13.476C117.995 14.228 118.491 15.156 118.811 16.26L115.787 17.22C115.451 16.148 114.915 15.34 114.179 14.796C113.443 14.252 112.507 13.98 111.371 13.98C110.363 13.98 109.491 14.228 108.755 14.724C108.019 15.204 107.451 15.9 107.051 16.812C106.667 17.708 106.475 18.788 106.475 20.052C106.475 21.3 106.667 22.38 107.051 23.292C107.451 24.188 108.019 24.884 108.755 25.38C109.507 25.876 110.387 26.124 111.395 26.124C112.515 26.124 113.443 25.852 114.179 25.308C114.915 24.748 115.459 23.932 115.811 22.86L118.811 23.796C118.475 24.9 117.971 25.836 117.299 26.604C116.643 27.356 115.827 27.932 114.851 28.332C113.875 28.716 112.731 28.908 111.419 28.908Z" fill="#050505"/>
<defs>
<linearGradient id="paint0_linear_162_2987" x1="20" y1="0" x2="20" y2="40" gradientUnits="userSpaceOnUse">
<stop stop-color="#B8CFFF"/>
<stop offset="1" stop-color="#546BFF"/>
</linearGradient>
</defs>
</svg>
