<svg width="80" height="80" viewBox="0 0 80 80" fill="none" xmlns="http://www.w3.org/2000/svg">
<g clip-path="url(#clip0_123_3495)">
<path d="M49.6286 7.96763L53.1331 2.12633C53.2279 1.96828 53.2907 1.79311 53.3178 1.6108C53.345 1.4285 53.3359 1.24264 53.2912 1.06383C53.2465 0.885028 53.167 0.716777 53.0573 0.568688C52.9476 0.420598 52.8098 0.295571 52.6517 0.200745C52.4937 0.105918 52.3185 0.0431492 52.1362 0.0160218C51.9539 -0.0111056 51.768 -0.00206021 51.5892 0.0426415C51.4104 0.0873431 51.2422 0.166826 51.0941 0.276551C50.946 0.386276 50.821 0.524096 50.7261 0.68214L47.028 6.84624C44.8259 6.0631 42.468 5.61398 40.0007 5.61398C37.5334 5.61398 35.1755 6.0631 32.9735 6.84624L29.2753 0.68214C29.0838 0.362955 28.7733 0.132921 28.4122 0.0426415C28.0511 -0.0476376 27.6689 0.00923386 27.3497 0.200745C27.0305 0.392256 26.8005 0.702718 26.7102 1.06383C26.6199 1.42495 26.6768 1.80714 26.8683 2.12633L30.3728 7.96763C23.5982 11.4693 18.9484 18.5288 18.9484 26.6677C18.9484 27.0399 19.0963 27.3969 19.3595 27.6601C19.6227 27.9233 19.9797 28.0711 20.3519 28.0711H59.6495C60.0217 28.0711 60.3787 27.9233 60.6419 27.6601C60.9051 27.3969 61.053 27.0399 61.053 26.6677C61.0516 18.5302 56.4032 11.4707 49.6286 7.96763ZM21.8087 25.2642C22.5273 15.8566 30.4121 8.42236 40.0007 8.42236C49.5893 8.42236 57.4741 15.8566 58.1927 25.2642H21.8087Z" fill="#CFD6EE"/>
<path d="M49.7928 15.9492H47.943C47.6977 15.9492 47.4625 16.0467 47.289 16.2201C47.1156 16.3936 47.0181 16.6288 47.0181 16.8741V18.7239C47.0181 19.2348 47.4322 19.6488 47.943 19.6488H49.7942C50.0395 19.6488 50.2748 19.5514 50.4482 19.3779C50.6217 19.2045 50.7191 18.9692 50.7191 18.7239V16.8741C50.7187 16.6287 50.621 16.3934 50.4473 16.22C50.2736 16.0466 50.0382 15.9492 49.7928 15.9492ZM32.057 15.9492H30.2058C29.9605 15.9492 29.7252 16.0467 29.5518 16.2201C29.3783 16.3936 29.2809 16.6288 29.2809 16.8741V18.7239C29.2809 19.2348 29.6949 19.6488 30.2058 19.6488H32.057C32.3023 19.6488 32.5375 19.5514 32.711 19.3779C32.8844 19.2045 32.9819 18.9692 32.9819 18.7239V16.8741C32.9819 16.6288 32.8844 16.3936 32.711 16.2201C32.5375 16.0467 32.3023 15.9492 32.057 15.9492ZM59.6481 29.4746H20.3505C19.9783 29.4746 19.6213 29.6225 19.3581 29.8857C19.0949 30.1489 18.947 30.5059 18.947 30.8781V59.1878C18.95 60.9855 19.666 62.7087 20.9379 63.9793C22.2097 65.2499 23.9337 65.9641 25.7315 65.9652H27.3679V74.3945C27.3679 77.485 29.8858 80 32.9819 80C36.078 80 38.5958 77.485 38.5958 74.3945V65.9652H41.4028V74.3945C41.4028 77.485 43.9206 80 47.0167 80C50.1128 80 52.6307 77.485 52.6307 74.3945V65.9652H54.2671C56.065 65.9644 57.7892 65.2504 59.0611 63.9797C60.3331 62.7091 61.049 60.9857 61.0516 59.1878V30.8781C61.0516 30.5059 60.9037 30.1489 60.6405 29.8857C60.3773 29.6225 60.0203 29.4746 59.6481 29.4746ZM58.2446 59.1878C58.2427 60.2414 57.8229 61.2513 57.0771 61.9957C56.3314 62.7401 55.3208 63.1582 54.2671 63.1582H51.2272C50.8549 63.1582 50.498 63.3061 50.2348 63.5693C49.9716 63.8325 49.8237 64.1895 49.8237 64.5617V74.3945C49.8237 75.139 49.528 75.8529 49.0015 76.3793C48.4751 76.9058 47.7612 77.2015 47.0167 77.2015C46.2723 77.2015 45.5583 76.9058 45.0319 76.3793C44.5055 75.8529 44.2098 75.139 44.2098 74.3945V64.5617C44.2098 64.1895 44.0619 63.8325 43.7987 63.5693C43.5355 63.3061 43.1785 63.1582 42.8063 63.1582H37.1923C36.8201 63.1582 36.4631 63.3061 36.1999 63.5693C35.9367 63.8325 35.7888 64.1895 35.7888 64.5617V74.3945C35.7888 75.139 35.4931 75.8529 34.9667 76.3793C34.4403 76.9058 33.7263 77.2015 32.9819 77.2015C32.2374 77.2015 31.5235 76.9058 30.9971 76.3793C30.4706 75.8529 30.1749 75.139 30.1749 74.3945V64.5617C30.1749 64.1895 30.027 63.8325 29.7638 63.5693C29.5006 63.3061 29.1437 63.1582 28.7714 63.1582H25.7329C24.6792 63.1579 23.6686 62.7397 22.9228 61.9954C22.1769 61.2511 21.7566 60.2415 21.754 59.1878V32.2816H58.2446V59.1878ZM67.3672 29.4746C64.6585 29.4746 62.455 31.6809 62.455 34.3924V54.03C62.455 56.7415 64.6585 58.9478 67.3672 58.9478C70.076 58.9478 72.2794 56.7415 72.2794 54.03V34.3924C72.2787 33.0893 71.7611 31.8397 70.8402 30.9178C69.9193 29.9958 68.6703 29.4768 67.3672 29.4746ZM69.4725 54.03C69.4725 55.1934 68.5279 56.1408 67.3672 56.1408C66.2066 56.1408 65.262 55.1934 65.262 54.03V34.3924C65.262 33.2289 66.2066 32.2816 67.3672 32.2816C68.5279 32.2816 69.4725 33.2289 69.4725 34.3924V54.03ZM12.6314 29.4746C9.92263 29.4746 7.71916 31.6809 7.71916 34.3924V54.03C7.71916 56.7415 9.92263 58.9478 12.6314 58.9478C15.3401 58.9478 17.5436 56.7415 17.5436 54.03V34.3924C17.5428 33.0893 17.0252 31.8397 16.1043 30.9178C15.1834 29.9958 13.9344 29.4768 12.6314 29.4746ZM14.7366 54.03C14.7366 55.1934 13.792 56.1408 12.6314 56.1408C11.4707 56.1408 10.5261 55.1934 10.5261 54.03V34.3924C10.5261 33.2289 11.4707 32.2816 12.6314 32.2816C13.792 32.2816 14.7366 33.2289 14.7366 34.3924V54.03Z" fill="#CFD6EE"/>
</g>
<defs>
<clipPath id="clip0_123_3495">
<rect width="80" height="80" fill="white"/>
</clipPath>
</defs>
</svg>
