<svg width="100" height="100" viewBox="0 0 100 100" fill="none" xmlns="http://www.w3.org/2000/svg">
<path d="M7.8125 87.5H10.9375V90.625C10.9375 91.0394 11.1021 91.4368 11.3951 91.7299C11.6882 92.0229 12.0856 92.1875 12.5 92.1875H18.75C19.1644 92.1875 19.5618 92.0229 19.8549 91.7299C20.1479 91.4368 20.3125 91.0394 20.3125 90.625V87.5H23.4375C23.8519 87.5 24.2493 87.3354 24.5424 87.0424C24.8354 86.7493 25 86.3519 25 85.9375V79.6875C25 79.2731 24.8354 78.8757 24.5424 78.5826C24.2493 78.2896 23.8519 78.125 23.4375 78.125H20.3125V75C20.3125 74.5856 20.1479 74.1882 19.8549 73.8951C19.5618 73.6021 19.1644 73.4375 18.75 73.4375H12.5C12.0856 73.4375 11.6882 73.6021 11.3951 73.8951C11.1021 74.1882 10.9375 74.5856 10.9375 75V78.125H7.8125C7.3981 78.125 7.00067 78.2896 6.70765 78.5826C6.41462 78.8757 6.25 79.2731 6.25 79.6875V85.9375C6.25 86.3519 6.41462 86.7493 6.70765 87.0424C7.00067 87.3354 7.3981 87.5 7.8125 87.5ZM9.375 81.25H12.5C12.9144 81.25 13.3118 81.0854 13.6049 80.7924C13.8979 80.4993 14.0625 80.1019 14.0625 79.6875V76.5625H17.1875V79.6875C17.1875 80.1019 17.3521 80.4993 17.6451 80.7924C17.9382 81.0854 18.3356 81.25 18.75 81.25H21.875V84.375H18.75C18.3356 84.375 17.9382 84.5396 17.6451 84.8326C17.3521 85.1257 17.1875 85.5231 17.1875 85.9375V89.0625H14.0625V85.9375C14.0625 85.5231 13.8979 85.1257 13.6049 84.8326C13.3118 84.5396 12.9144 84.375 12.5 84.375H9.375V81.25ZM42.1875 87.5H45.3125V90.625C45.3125 91.0394 45.4771 91.4368 45.7701 91.7299C46.0632 92.0229 46.4606 92.1875 46.875 92.1875H53.125C53.5394 92.1875 53.9368 92.0229 54.2299 91.7299C54.5229 91.4368 54.6875 91.0394 54.6875 90.625V87.5H57.8125C58.2269 87.5 58.6243 87.3354 58.9174 87.0424C59.2104 86.7493 59.375 86.3519 59.375 85.9375V79.6875C59.375 79.2731 59.2104 78.8757 58.9174 78.5826C58.6243 78.2896 58.2269 78.125 57.8125 78.125H54.6875V75C54.6875 74.5856 54.5229 74.1882 54.2299 73.8951C53.9368 73.6021 53.5394 73.4375 53.125 73.4375H46.875C46.4606 73.4375 46.0632 73.6021 45.7701 73.8951C45.4771 74.1882 45.3125 74.5856 45.3125 75V78.125H42.1875C41.7731 78.125 41.3757 78.2896 41.0826 78.5826C40.7896 78.8757 40.625 79.2731 40.625 79.6875V85.9375C40.625 86.3519 40.7896 86.7493 41.0826 87.0424C41.3757 87.3354 41.7731 87.5 42.1875 87.5ZM43.75 81.25H46.875C47.2894 81.25 47.6868 81.0854 47.9799 80.7924C48.2729 80.4993 48.4375 80.1019 48.4375 79.6875V76.5625H51.5625V79.6875C51.5625 80.1019 51.7271 80.4993 52.0201 80.7924C52.3132 81.0854 52.7106 81.25 53.125 81.25H56.25V84.375H53.125C52.7106 84.375 52.3132 84.5396 52.0201 84.8326C51.7271 85.1257 51.5625 85.5231 51.5625 85.9375V89.0625H48.4375V85.9375C48.4375 85.5231 48.2729 85.1257 47.9799 84.8326C47.6868 84.5396 47.2894 84.375 46.875 84.375H43.75V81.25Z" fill="#DDDEE2"/>
<path d="M99.5422 73.8954L91.7297 66.0829C91.5848 65.9375 91.4127 65.8222 91.2231 65.7436C91.0335 65.6651 90.8302 65.6248 90.625 65.6251H85.9375V64.0626C85.9375 59.7547 82.4328 56.2501 78.125 56.2501H68.75C66.1656 56.2501 64.0625 54.1469 64.0625 51.5626V50H78.125C85.8797 50 92.1875 43.6922 92.1875 35.9375C92.1875 28.1829 85.8797 21.875 78.125 21.875C77.0641 21.875 76.0172 21.9938 74.9937 22.2297C74.9984 22.111 75 21.9922 75 21.875C75 15.8454 70.0922 10.9375 64.0625 10.9375C62.1359 10.9375 60.25 11.4516 58.5938 12.4094C56.8769 9.13115 54.2939 6.38648 51.1257 4.47402C47.9576 2.56155 44.3256 1.55455 40.625 1.56255C29.425 1.56255 20.3125 10.675 20.3125 21.875V21.961C13.2922 22.7422 7.8125 28.711 7.8125 35.9375C7.8125 43.6922 14.1203 50 21.875 50H35.9375V51.5626C35.9375 54.1469 33.8344 56.2501 31.25 56.2501H21.875C17.5672 56.2501 14.0625 59.7547 14.0625 64.0626V65.6251H1.5625C1.1481 65.6251 0.750671 65.7897 0.457646 66.0827C0.16462 66.3757 0 66.7732 0 67.1876L0 96.8751C0 97.2895 0.16462 97.6869 0.457646 97.9799C0.750671 98.2729 1.1481 98.4376 1.5625 98.4376H29.6875C30.1019 98.4376 30.4993 98.2729 30.7924 97.9799C31.0854 97.6869 31.25 97.2895 31.25 96.8751V75.0001C31.2503 74.7948 31.21 74.5916 31.1314 74.402C31.0529 74.2124 30.9376 74.0402 30.7922 73.8954L22.9797 66.0829C22.8348 65.9375 22.6627 65.8222 22.4731 65.7436C22.2835 65.6651 22.0802 65.6248 21.875 65.6251H17.1875V64.0626C17.1875 61.4782 19.2906 59.3751 21.875 59.3751H31.25C35.5578 59.3751 39.0625 55.8704 39.0625 51.5626V50H48.4375V65.6251H35.9375C35.5231 65.6251 35.1257 65.7897 34.8326 66.0827C34.5396 66.3757 34.375 66.7732 34.375 67.1876V96.8751C34.375 97.2895 34.5396 97.6869 34.8326 97.9799C35.1257 98.2729 35.5231 98.4376 35.9375 98.4376H64.0625C64.4769 98.4376 64.8743 98.2729 65.1674 97.9799C65.4604 97.6869 65.625 97.2895 65.625 96.8751V75.0001C65.6253 74.7948 65.585 74.5916 65.5064 74.402C65.4279 74.2124 65.3126 74.0402 65.1672 73.8954L57.3547 66.0829C57.2098 65.9375 57.0377 65.8222 56.8481 65.7436C56.6585 65.6651 56.4552 65.6248 56.25 65.6251H51.5625V50H60.9375V51.5626C60.9375 55.8704 64.4422 59.3751 68.75 59.3751H78.125C80.7094 59.3751 82.8125 61.4782 82.8125 64.0626V65.6251H70.3125C69.8981 65.6251 69.5007 65.7897 69.2076 66.0827C68.9146 66.3757 68.75 66.7732 68.75 67.1876V96.8751C68.75 97.2895 68.9146 97.6869 69.2076 97.9799C69.5007 98.2729 69.8981 98.4376 70.3125 98.4376H98.4375C98.8519 98.4376 99.2493 98.2729 99.5424 97.9799C99.8354 97.6869 100 97.2895 100 96.8751V75.0001C100 74.7948 99.96 74.5916 99.8814 74.402C99.8029 74.2124 99.6876 74.0402 99.5422 73.8954ZM28.125 75.6469V95.3126H3.125V68.7501H21.2281L28.125 75.6469ZM62.5 75.6469V95.3126H37.5V68.7501H55.6031L62.5 75.6469ZM10.9375 35.9375C10.9375 29.9079 15.8422 25.0016 21.8641 25.0016H21.8672C22.0901 25.014 22.313 24.9784 22.521 24.8974C22.729 24.8163 22.9172 24.6917 23.0729 24.5318C23.2287 24.3719 23.3483 24.1804 23.4239 23.9704C23.4995 23.7604 23.5291 23.5366 23.5109 23.3141C23.4667 22.8356 23.4422 22.3555 23.4375 21.875C23.4375 12.3985 31.1484 4.68755 40.625 4.68755C47.6219 4.68755 53.8625 8.87505 56.5234 15.3532C56.6176 15.5815 56.7644 15.7842 56.952 15.9449C57.1396 16.1055 57.3625 16.2194 57.6026 16.2774C57.8426 16.3353 58.093 16.3355 58.3332 16.2781C58.5733 16.2207 58.7965 16.1072 58.9844 15.9469C60.3982 14.7333 62.1992 14.065 64.0625 14.0625C68.3703 14.0625 71.875 17.5672 71.875 21.875C71.8739 22.621 71.7661 23.3629 71.5547 24.0782C71.4706 24.3642 71.4702 24.6683 71.5533 24.9546C71.6365 25.2409 71.7999 25.4974 72.0241 25.6939C72.2483 25.8904 72.5241 26.0186 72.8188 26.0634C73.1136 26.1083 73.415 26.0678 73.6875 25.9469C75.0836 25.3226 76.5957 25 78.125 25C84.1547 25 89.0625 29.9079 89.0625 35.9375C89.0625 41.9672 84.1547 46.875 78.125 46.875H65.625V41.2719L68.3047 38.5922C68.9299 38.8986 69.6163 39.0594 70.3125 39.0625C72.8969 39.0625 75 36.9594 75 34.375C75 31.7907 72.8969 29.6875 70.3125 29.6875C67.7281 29.6875 65.625 31.7907 65.625 34.375C65.625 35.0969 65.8016 35.7719 66.0953 36.3829L62.9578 39.5204C62.8124 39.6652 62.6971 39.8374 62.6186 40.027C62.54 40.2166 62.4997 40.4198 62.5 40.625V46.875H56.25V38.1469L60.4797 33.9172C60.6251 33.7724 60.7404 33.6002 60.8189 33.4106C60.8975 33.221 60.9378 33.0178 60.9375 32.8125V29.4C61.8488 29.0788 62.6384 28.4835 63.1979 27.6957C63.7574 26.9079 64.0594 25.9663 64.0625 25C64.0625 22.4157 61.9594 20.3125 59.375 20.3125C56.7906 20.3125 54.6875 22.4157 54.6875 25C54.6875 27.0344 55.9984 28.7532 57.8125 29.4V32.1657L53.5828 36.3954C53.4374 36.5402 53.3221 36.7124 53.2436 36.902C53.165 37.0916 53.1247 37.2948 53.125 37.5V46.875H46.875V34.375C46.8753 34.1698 46.835 33.9666 46.7564 33.777C46.6779 33.5874 46.5626 33.4152 46.4172 33.2704L42.1875 29.0407V18.4625C43.0988 18.1413 43.8884 17.546 44.4479 16.7582C45.0074 15.9704 45.3094 15.0288 45.3125 14.0625C45.3125 11.4782 43.2094 9.37505 40.625 9.37505C38.0406 9.37505 35.9375 11.4782 35.9375 14.0625C35.9375 16.0969 37.2484 17.8157 39.0625 18.4625V29.6875C39.0625 30.1032 39.2266 30.5001 39.5203 30.7922L43.75 35.0219V46.875H37.5V39.0625C37.5003 38.8573 37.46 38.6541 37.3814 38.4645C37.3029 38.2749 37.1876 38.1027 37.0422 37.9579L33.9047 34.8204C34.2111 34.1952 34.3719 33.5088 34.375 32.8125C34.375 30.2282 32.2719 28.125 29.6875 28.125C27.1031 28.125 25 30.2282 25 32.8125C25 35.3969 27.1031 37.5 29.6875 37.5C30.3837 37.4969 31.0701 37.3361 31.6953 37.0297L34.375 39.7094V46.875H21.875C15.8453 46.875 10.9375 41.9672 10.9375 35.9375ZM68.75 34.375C68.75 33.9606 68.9146 33.5632 69.2076 33.2702C69.5007 32.9772 69.8981 32.8125 70.3125 32.8125C70.7269 32.8125 71.1243 32.9772 71.4174 33.2702C71.7104 33.5632 71.875 33.9606 71.875 34.375C71.875 34.7895 71.7104 35.1869 71.4174 35.4799C71.1243 35.7729 70.7269 35.9375 70.3125 35.9375C69.8981 35.9375 69.5007 35.7729 69.2076 35.4799C68.9146 35.1869 68.75 34.7895 68.75 34.375ZM57.8125 25C57.8125 24.5856 57.9771 24.1882 58.2701 23.8952C58.5632 23.6022 58.9606 23.4375 59.375 23.4375C59.7894 23.4375 60.1868 23.6022 60.4799 23.8952C60.7729 24.1882 60.9375 24.5856 60.9375 25C60.9375 25.4144 60.7729 25.8119 60.4799 26.1049C60.1868 26.3979 59.7894 26.5625 59.375 26.5625C58.9606 26.5625 58.5632 26.3979 58.2701 26.1049C57.9771 25.8119 57.8125 25.4144 57.8125 25ZM39.0625 14.0625C39.0625 13.6481 39.2271 13.2507 39.5201 12.9577C39.8132 12.6647 40.2106 12.5 40.625 12.5C41.0394 12.5 41.4368 12.6647 41.7299 12.9577C42.0229 13.2507 42.1875 13.6481 42.1875 14.0625C42.1875 14.4769 42.0229 14.8744 41.7299 15.1674C41.4368 15.4604 41.0394 15.625 40.625 15.625C40.2106 15.625 39.8132 15.4604 39.5201 15.1674C39.2271 14.8744 39.0625 14.4769 39.0625 14.0625ZM29.6875 34.375C29.2731 34.375 28.8757 34.2104 28.5826 33.9174C28.2896 33.6244 28.125 33.227 28.125 32.8125C28.125 32.3981 28.2896 32.0007 28.5826 31.7077C28.8757 31.4147 29.2731 31.25 29.6875 31.25C30.1019 31.25 30.4993 31.4147 30.7924 31.7077C31.0854 32.0007 31.25 32.3981 31.25 32.8125C31.25 33.227 31.0854 33.6244 30.7924 33.9174C30.4993 34.2104 30.1019 34.375 29.6875 34.375ZM96.875 95.3126H71.875V68.7501H89.9781L96.875 75.6469V95.3126Z" fill="#DDDEE2"/>
<path d="M89.0625 75C89.0625 74.5856 88.8979 74.1882 88.6049 73.8951C88.3118 73.6021 87.9144 73.4375 87.5 73.4375H81.25C80.8356 73.4375 80.4382 73.6021 80.1451 73.8951C79.8521 74.1882 79.6875 74.5856 79.6875 75V78.125H76.5625C76.1481 78.125 75.7507 78.2896 75.4576 78.5826C75.1646 78.8757 75 79.2731 75 79.6875V85.9375C75 86.3519 75.1646 86.7493 75.4576 87.0424C75.7507 87.3354 76.1481 87.5 76.5625 87.5H79.6875V90.625C79.6875 91.0394 79.8521 91.4368 80.1451 91.7299C80.4382 92.0229 80.8356 92.1875 81.25 92.1875H87.5C87.9144 92.1875 88.3118 92.0229 88.6049 91.7299C88.8979 91.4368 89.0625 91.0394 89.0625 90.625V87.5H92.1875C92.6019 87.5 92.9993 87.3354 93.2924 87.0424C93.5854 86.7493 93.75 86.3519 93.75 85.9375V79.6875C93.75 79.2731 93.5854 78.8757 93.2924 78.5826C92.9993 78.2896 92.6019 78.125 92.1875 78.125H89.0625V75ZM90.625 81.25V84.375H87.5C87.0856 84.375 86.6882 84.5396 86.3951 84.8326C86.1021 85.1257 85.9375 85.5231 85.9375 85.9375V89.0625H82.8125V85.9375C82.8125 85.5231 82.6479 85.1257 82.3549 84.8326C82.0618 84.5396 81.6644 84.375 81.25 84.375H78.125V81.25H81.25C81.6644 81.25 82.0618 81.0854 82.3549 80.7924C82.6479 80.4993 82.8125 80.1019 82.8125 79.6875V76.5625H85.9375V79.6875C85.9375 80.1019 86.1021 80.4993 86.3951 80.7924C86.6882 81.0854 87.0856 81.25 87.5 81.25H90.625Z" fill="#DDDEE2"/>
</svg>
