<svg width="80" height="80" viewBox="0 0 80 80" fill="none" xmlns="http://www.w3.org/2000/svg">
<path d="M12.5 16.25C13.2417 16.25 13.9667 16.0301 14.5834 15.618C15.2001 15.206 15.6807 14.6203 15.9645 13.9351C16.2484 13.2498 16.3226 12.4958 16.1779 11.7684C16.0333 11.041 15.6761 10.3728 15.1517 9.84835C14.6272 9.3239 13.959 8.96675 13.2316 8.82206C12.5042 8.67736 11.7502 8.75162 11.0649 9.03545C10.3797 9.31928 9.79404 9.79993 9.38199 10.4166C8.96993 11.0333 8.75 11.7583 8.75 12.5C8.75099 13.4943 9.1464 14.4475 9.84945 15.1506C10.5525 15.8536 11.5057 16.249 12.5 16.25ZM12.5 11.25C12.7472 11.25 12.9889 11.3233 13.1945 11.4607C13.4 11.598 13.5602 11.7932 13.6549 12.0216C13.7495 12.2501 13.7742 12.5014 13.726 12.7439C13.6778 12.9863 13.5587 13.2091 13.3839 13.3839C13.2091 13.5587 12.9863 13.6778 12.7439 13.726C12.5014 13.7742 12.2501 13.7495 12.0216 13.6549C11.7932 13.5602 11.598 13.4 11.4607 13.1945C11.3233 12.9889 11.25 12.7472 11.25 12.5C11.25 12.1685 11.3817 11.8505 11.6161 11.6161C11.8505 11.3817 12.1685 11.25 12.5 11.25ZM22.5 16.25C23.2417 16.25 23.9667 16.0301 24.5834 15.618C25.2001 15.206 25.6807 14.6203 25.9645 13.9351C26.2484 13.2498 26.3226 12.4958 26.1779 11.7684C26.0333 11.041 25.6761 10.3728 25.1517 9.84835C24.6272 9.3239 23.959 8.96675 23.2316 8.82206C22.5042 8.67736 21.7502 8.75162 21.0649 9.03545C20.3797 9.31928 19.794 9.79993 19.382 10.4166C18.9699 11.0333 18.75 11.7583 18.75 12.5C18.751 13.4943 19.1464 14.4475 19.8494 15.1506C20.5525 15.8536 21.5057 16.249 22.5 16.25ZM22.5 11.25C22.7472 11.25 22.9889 11.3233 23.1945 11.4607C23.4 11.598 23.5602 11.7932 23.6549 12.0216C23.7495 12.2501 23.7742 12.5014 23.726 12.7439C23.6777 12.9863 23.5587 13.2091 23.3839 13.3839C23.2091 13.5587 22.9863 13.6778 22.7439 13.726C22.5014 13.7742 22.2501 13.7495 22.0216 13.6549C21.7932 13.5602 21.598 13.4 21.4607 13.1945C21.3233 12.9889 21.25 12.7472 21.25 12.5C21.25 12.1685 21.3817 11.8505 21.6161 11.6161C21.8505 11.3817 22.1685 11.25 22.5 11.25ZM8.75 35C8.75 35.7417 8.96993 36.4667 9.38199 37.0834C9.79404 37.7001 10.3797 38.1807 11.0649 38.4646C11.7502 38.7484 12.5042 38.8226 13.2316 38.6779C13.959 38.5332 14.6272 38.1761 15.1517 37.6516C15.6761 37.1272 16.0333 36.459 16.1779 35.7316C16.3226 35.0042 16.2484 34.2502 15.9645 33.5649C15.6807 32.8797 15.2001 32.294 14.5834 31.882C13.9667 31.4699 13.2417 31.25 12.5 31.25C11.5057 31.251 10.5525 31.6464 9.84945 32.3494C9.1464 33.0525 8.75099 34.0057 8.75 35ZM13.75 35C13.75 35.2472 13.6767 35.4889 13.5393 35.6945C13.402 35.9 13.2068 36.0602 12.9784 36.1549C12.7499 36.2495 12.4986 36.2742 12.2561 36.226C12.0137 36.1777 11.7909 36.0587 11.6161 35.8839C11.4413 35.7091 11.3222 35.4863 11.274 35.2439C11.2258 35.0014 11.2505 34.7501 11.3451 34.5216C11.4398 34.2932 11.6 34.098 11.8055 33.9607C12.0111 33.8233 12.2528 33.75 12.5 33.75C12.8315 33.75 13.1495 33.8817 13.3839 34.1161C13.6183 34.3505 13.75 34.6685 13.75 35ZM8.75 57.5C8.75 58.2417 8.96993 58.9667 9.38199 59.5834C9.79404 60.2001 10.3797 60.6807 11.0649 60.9645C11.7502 61.2484 12.5042 61.3226 13.2316 61.1779C13.959 61.0332 14.6272 60.6761 15.1517 60.1516C15.6761 59.6272 16.0333 58.959 16.1779 58.2316C16.3226 57.5042 16.2484 56.7502 15.9645 56.0649C15.6807 55.3797 15.2001 54.794 14.5834 54.382C13.9667 53.9699 13.2417 53.75 12.5 53.75C11.5057 53.751 10.5525 54.1464 9.84945 54.8494C9.1464 55.5525 8.75099 56.5057 8.75 57.5ZM13.75 57.5C13.75 57.7472 13.6767 57.9889 13.5393 58.1945C13.402 58.4 13.2068 58.5602 12.9784 58.6548C12.7499 58.7495 12.4986 58.7742 12.2561 58.726C12.0137 58.6777 11.7909 58.5587 11.6161 58.3839C11.4413 58.2091 11.3222 57.9863 11.274 57.7439C11.2258 57.5014 11.2505 57.2501 11.3451 57.0216C11.4398 56.7932 11.6 56.598 11.8055 56.4607C12.0111 56.3233 12.2528 56.25 12.5 56.25C12.8315 56.25 13.1495 56.3817 13.3839 56.6161C13.6183 56.8505 13.75 57.1685 13.75 57.5ZM30 16.25H57.5C57.8315 16.25 58.1495 16.1183 58.3839 15.8839C58.6183 15.6495 58.75 15.3315 58.75 15V10C58.75 9.66848 58.6183 9.35054 58.3839 9.11612C58.1495 8.8817 57.8315 8.75 57.5 8.75H30C29.6685 8.75 29.3505 8.8817 29.1161 9.11612C28.8817 9.35054 28.75 9.66848 28.75 10V15C28.75 15.3315 28.8817 15.6495 29.1161 15.8839C29.3505 16.1183 29.6685 16.25 30 16.25ZM31.25 11.25H56.25V13.75H31.25V11.25ZM18.75 35C18.75 35.7417 18.9699 36.4667 19.382 37.0834C19.794 37.7001 20.3797 38.1807 21.0649 38.4646C21.7502 38.7484 22.5042 38.8226 23.2316 38.6779C23.959 38.5332 24.6272 38.1761 25.1517 37.6516C25.6761 37.1272 26.0333 36.459 26.1779 35.7316C26.3226 35.0042 26.2484 34.2502 25.9645 33.5649C25.6807 32.8797 25.2001 32.294 24.5834 31.882C23.9667 31.4699 23.2417 31.25 22.5 31.25C21.5057 31.251 20.5525 31.6464 19.8494 32.3494C19.1464 33.0525 18.751 34.0057 18.75 35ZM23.75 35C23.75 35.2472 23.6767 35.4889 23.5393 35.6945C23.402 35.9 23.2068 36.0602 22.9784 36.1549C22.7499 36.2495 22.4986 36.2742 22.2561 36.226C22.0137 36.1777 21.7909 36.0587 21.6161 35.8839C21.4413 35.7091 21.3223 35.4863 21.274 35.2439C21.2258 35.0014 21.2505 34.7501 21.3451 34.5216C21.4398 34.2932 21.6 34.098 21.8055 33.9607C22.0111 33.8233 22.2528 33.75 22.5 33.75C22.8315 33.75 23.1495 33.8817 23.3839 34.1161C23.6183 34.3505 23.75 34.6685 23.75 35ZM18.75 57.5C18.75 58.2417 18.9699 58.9667 19.382 59.5834C19.794 60.2001 20.3797 60.6807 21.0649 60.9645C21.7502 61.2484 22.5042 61.3226 23.2316 61.1779C23.959 61.0332 24.6272 60.6761 25.1517 60.1516C25.6761 59.6272 26.0333 58.959 26.1779 58.2316C26.3226 57.5042 26.2484 56.7502 25.9645 56.0649C25.6807 55.3797 25.2001 54.794 24.5834 54.382C23.9667 53.9699 23.2417 53.75 22.5 53.75C21.5057 53.751 20.5525 54.1464 19.8494 54.8494C19.1464 55.5525 18.751 56.5057 18.75 57.5ZM23.75 57.5C23.75 57.7472 23.6767 57.9889 23.5393 58.1945C23.402 58.4 23.2068 58.5602 22.9784 58.6548C22.7499 58.7495 22.4986 58.7742 22.2561 58.726C22.0137 58.6777 21.7909 58.5587 21.6161 58.3839C21.4413 58.2091 21.3223 57.9863 21.274 57.7439C21.2258 57.5014 21.2505 57.2501 21.3451 57.0216C21.4398 56.7932 21.6 56.598 21.8055 56.4607C22.0111 56.3233 22.2528 56.25 22.5 56.25C22.8315 56.25 23.1495 56.3817 23.3839 56.6161C23.6183 56.8505 23.75 57.1685 23.75 57.5ZM31.25 56.25V58.75H38.75C39.0815 58.75 39.3995 58.8817 39.6339 59.1161C39.8683 59.3505 40 59.6685 40 60C40 60.3315 39.8683 60.6495 39.6339 60.8839C39.3995 61.1183 39.0815 61.25 38.75 61.25H30C29.6685 61.25 29.3505 61.1183 29.1161 60.8839C28.8817 60.6495 28.75 60.3315 28.75 60V55C28.75 54.6685 28.8817 54.3505 29.1161 54.1161C29.3505 53.8817 29.6685 53.75 30 53.75H38.75C39.0815 53.75 39.3995 53.8817 39.6339 54.1161C39.8683 54.3505 40 54.6685 40 55C40 55.3315 39.8683 55.6495 39.6339 55.8839C39.3995 56.1183 39.0815 56.25 38.75 56.25H31.25ZM56.25 34.3925V33.75H31.25V36.25H51.25C51.5815 36.25 51.8995 36.3817 52.1339 36.6161C52.3683 36.8505 52.5 37.1685 52.5 37.5C52.5 37.8315 52.3683 38.1495 52.1339 38.3839C51.8995 38.6183 51.5815 38.75 51.25 38.75H30C29.6685 38.75 29.3505 38.6183 29.1161 38.3839C28.8817 38.1495 28.75 37.8315 28.75 37.5V32.5C28.75 32.1685 28.8817 31.8505 29.1161 31.6161C29.3505 31.3817 29.6685 31.25 30 31.25H57.5C57.8315 31.25 58.1495 31.3817 58.3839 31.6161C58.6183 31.8505 58.75 32.1685 58.75 32.5V34.3925C58.75 34.724 58.6183 35.042 58.3839 35.2764C58.1495 35.5108 57.8315 35.6425 57.5 35.6425C57.1685 35.6425 56.8505 35.5108 56.6161 35.2764C56.3817 35.042 56.25 34.724 56.25 34.3925ZM40 65H6.25C5.91848 65 5.60054 64.8683 5.36612 64.6339C5.1317 64.3995 5 64.0815 5 63.75V51.25C5 50.9185 5.1317 50.6005 5.36612 50.3661C5.60054 50.1317 5.91848 50 6.25 50H38.75C39.0815 50 39.3995 49.8683 39.6339 49.6339C39.8683 49.3995 40 49.0815 40 48.75C40 48.4185 39.8683 48.1005 39.6339 47.8661C39.3995 47.6317 39.0815 47.5 38.75 47.5H8.75V45H38.75C39.0815 45 39.3995 44.8683 39.6339 44.6339C39.8683 44.3995 40 44.0815 40 43.75C40 43.4185 39.8683 43.1005 39.6339 42.8661C39.3995 42.6317 39.0815 42.5 38.75 42.5H6.25C5.91848 42.5 5.60054 42.3683 5.36612 42.1339C5.1317 41.8995 5 41.5815 5 41.25V28.75C5 28.4185 5.1317 28.1005 5.36612 27.8661C5.60054 27.6317 5.91848 27.5 6.25 27.5H61.25C61.5815 27.5 61.8995 27.6317 62.1339 27.8661C62.3683 28.1005 62.5 28.4185 62.5 28.75V35C62.5 35.3315 62.6317 35.6495 62.8661 35.8839C63.1005 36.1183 63.4185 36.25 63.75 36.25C64.0815 36.25 64.3995 36.1183 64.6339 35.8839C64.8683 35.6495 65 35.3315 65 35V28.75C64.999 27.7557 64.6036 26.8025 63.9006 26.0994C63.1975 25.3964 62.2443 25.001 61.25 25V22.5C62.2443 22.499 63.1975 22.1036 63.9006 21.4006C64.6036 20.6975 64.999 19.7443 65 18.75V6.25C64.999 5.25574 64.6036 4.30249 63.9006 3.59945C63.1975 2.8964 62.2443 2.50099 61.25 2.5H6.25C5.25574 2.50099 4.30249 2.8964 3.59945 3.59945C2.8964 4.30249 2.50099 5.25574 2.5 6.25V18.75C2.50099 19.7443 2.8964 20.6975 3.59945 21.4006C4.30249 22.1036 5.25574 22.499 6.25 22.5V25C5.25574 25.001 4.30249 25.3964 3.59945 26.0994C2.8964 26.8025 2.50099 27.7557 2.5 28.75V41.25C2.50099 42.2443 2.8964 43.1975 3.59945 43.9006C4.30249 44.6036 5.25574 44.999 6.25 45V47.5C5.25574 47.501 4.30249 47.8964 3.59945 48.5994C2.8964 49.3025 2.50099 50.2557 2.5 51.25V63.75C2.50099 64.7443 2.8964 65.6975 3.59945 66.4006C4.30249 67.1036 5.25574 67.499 6.25 67.5H40C40.3315 67.5 40.6495 67.3683 40.8839 67.1339C41.1183 66.8995 41.25 66.5815 41.25 66.25C41.25 65.9185 41.1183 65.6005 40.8839 65.3661C40.6495 65.1317 40.3315 65 40 65ZM5 18.75V6.25C5 5.91848 5.1317 5.60054 5.36612 5.36612C5.60054 5.1317 5.91848 5 6.25 5H61.25C61.5815 5 61.8995 5.1317 62.1339 5.36612C62.3683 5.60054 62.5 5.91848 62.5 6.25V18.75C62.5 19.0815 62.3683 19.3995 62.1339 19.6339C61.8995 19.8683 61.5815 20 61.25 20H6.25C5.91848 20 5.60054 19.8683 5.36612 19.6339C5.1317 19.3995 5 19.0815 5 18.75ZM8.75 22.5H58.75V25H8.75V22.5ZM76.25 42.5C70.7318 42.4107 65.3518 40.7594 60.7338 37.7375C60.5199 37.5839 60.2633 37.5012 60 37.5012C59.7367 37.5012 59.4801 37.5839 59.2662 37.7375C54.6482 40.7594 49.2682 42.4107 43.75 42.5C43.4185 42.5 43.1005 42.6317 42.8661 42.8661C42.6317 43.1005 42.5 43.4185 42.5 43.75V56.25C42.5 71.7125 59.4438 77.3838 59.6138 77.4388C59.8648 77.5203 60.1352 77.5203 60.3862 77.4388C60.5562 77.3838 77.5 71.7138 77.5 56.25V43.75C77.5 43.4185 77.3683 43.1005 77.1339 42.8661C76.8995 42.6317 76.5815 42.5 76.25 42.5ZM75 56.25C75 68.6525 62.3875 74.0175 60 74.9225C57.6125 74.0175 45 68.6525 45 56.25V44.9725C50.3173 44.685 55.4762 43.0617 60 40.2525C64.5238 43.0617 69.6827 44.685 75 44.9725V56.25ZM57.5 61.9825L67.8662 51.6162C68.102 51.3885 68.4178 51.2626 68.7455 51.2654C69.0732 51.2683 69.3868 51.3997 69.6185 51.6315C69.8503 51.8632 69.9817 52.1768 69.9846 52.5045C69.9874 52.8322 69.8615 53.148 69.6338 53.3838L58.3838 64.6338C58.1493 64.8681 57.8315 64.9997 57.5 64.9997C57.1685 64.9997 56.8507 64.8681 56.6162 64.6338L50.3662 58.3838C50.1385 58.148 50.0126 57.8322 50.0154 57.5045C50.0183 57.1768 50.1497 56.8632 50.3815 56.6315C50.6132 56.3997 50.9268 56.2683 51.2545 56.2654C51.5822 56.2626 51.898 56.3885 52.1338 56.6162L57.5 61.9825Z" fill="#CFD6EE"/>
</svg>
