<svg width="111" height="104" viewBox="0 0 111 104" fill="none" xmlns="http://www.w3.org/2000/svg">
<path d="M70.5004 69.0001L70.799 70.4701L70.5004 69.0001ZM42.0005 34.0001L42.2728 35.4752L42.0005 34.0001ZM94.5004 89.5002L93.6564 88.2601L94.5004 89.5002ZM0.944753 88.1068C0.175253 88.4137 -0.199794 89.2863 0.107063 90.0558L5.10758 102.595C5.41444 103.365 6.287 103.74 7.0565 103.433C7.826 103.126 8.20105 102.254 7.89419 101.484L3.44928 90.3378L14.5957 85.8929C15.3652 85.5861 15.7403 84.7135 15.4334 83.944C15.1265 83.1745 14.254 82.7995 13.4845 83.1063L0.944753 88.1068ZM27.0004 4.25V5.75C56.0687 5.75 78.0425 19.377 87.0383 33.8734C91.5357 41.1207 92.6971 48.4004 90.2327 54.3211C87.7792 60.2158 81.5358 65.2276 70.2017 67.5302L70.5004 69.0001L70.799 70.4701C82.7149 68.0493 90.034 62.6056 93.0024 55.4739C95.9599 48.3684 94.4026 40.051 89.5874 32.2916C79.9583 16.7746 56.932 2.75 27.0004 2.75V4.25ZM70.5004 69.0001L70.2017 67.5302C43.2892 72.9977 29.043 65.6318 25.0944 57.2408C23.1281 53.0622 23.5564 48.4115 26.3506 44.407C29.1602 40.3804 34.4389 36.9215 42.2728 35.4752L42.0005 34.0001L41.7282 32.5251C33.3121 34.0788 27.2529 37.8713 23.8904 42.6903C20.5124 47.5314 19.934 53.3203 22.38 58.5181C27.2559 68.88 43.5097 76.0142 70.799 70.4701L70.5004 69.0001ZM42.0005 34.0001L42.2728 35.4752C66.6407 30.9765 88.2275 38.6335 99.2532 50.1677C104.756 55.9238 107.55 62.5468 106.961 69.0707C106.374 75.573 102.395 82.3131 93.6564 88.2601L94.5004 89.5002L95.3443 90.7402C104.606 84.4372 109.26 76.971 109.949 69.3404C110.636 61.7314 107.349 54.2949 101.422 48.0947C89.5891 35.7163 66.926 27.8732 41.7282 32.5251L42.0005 34.0001ZM94.5004 89.5002L93.6564 88.2601C79.6621 97.784 61.5651 99.8338 44.4491 98.4178C27.3556 97.0036 11.4634 92.1498 2.0927 88.1221L1.50037 89.5002L0.90803 90.8782C10.5374 95.0172 26.7453 99.9634 44.2018 101.408C61.6358 102.85 80.5388 100.816 95.3443 90.7402L94.5004 89.5002ZM27.0004 4.25H28.5004V0H27.0004H25.5004V4.25H27.0004ZM27.0004 4.25H25.5004V8.5H27.0004H28.5004V4.25H27.0004Z" fill="#7AB656"/>
</svg>
