<svg width="80" height="80" viewBox="0 0 80 80" fill="none" xmlns="http://www.w3.org/2000/svg">
<path d="M56.7316 10.35C59.1938 10.35 61.1977 12.3538 61.1977 14.8161C61.1977 16.8735 59.798 18.611 57.8998 19.1262L57.6691 19.1888V39.2712H62.7304V23.7315C62.7304 23.4829 62.8293 23.2444 63.0051 23.0686C63.1809 22.8928 63.4193 22.794 63.6679 22.794H69.5984L69.6609 22.5634C70.1761 20.6651 71.9138 19.2652 73.9713 19.2652C76.4337 19.2652 78.4375 21.2691 78.437 23.7315C78.437 26.1937 76.4332 28.1976 73.9708 28.1976C71.9133 28.1976 70.1757 26.7979 69.6606 24.8997L69.5981 24.669H64.6051V39.2712H68.5033C68.7519 39.2712 68.9904 39.37 69.1663 39.5458C69.342 39.7216 69.4408 39.9601 69.4408 40.2087V44.0661C69.4408 44.2555 69.3833 44.4405 69.2761 44.5966C69.1689 44.7528 69.0168 44.873 68.84 44.941L64.5724 46.5836L64.5316 46.7378C63.9551 48.909 63.0909 50.9933 61.962 52.9354L61.8819 53.0734L63.7395 57.2556C63.8163 57.4287 63.8389 57.6211 63.8043 57.8073C63.7697 57.9935 63.6795 58.1649 63.5455 58.2989L58.0904 63.7544C57.9565 63.8884 57.7851 63.9787 57.5989 64.0133C57.4126 64.0479 57.2202 64.0252 57.0471 63.9483L52.8662 62.0915L52.7283 62.1717C50.7855 63.3009 48.7005 64.1652 46.5286 64.7418L46.3744 64.7827L44.7322 69.0492C44.6641 69.2259 44.5441 69.378 44.388 69.4853C44.2318 69.5925 44.0468 69.6497 43.8574 69.6497H36.1423C35.9529 69.6497 35.7679 69.5925 35.6117 69.4853C35.4556 69.378 35.3356 69.2259 35.2675 69.0492L33.6249 64.7816L33.4706 64.7405C31.2995 64.164 29.2151 63.3 27.2729 62.1711L27.135 62.0909L22.9529 63.9485C22.7797 64.0253 22.5874 64.0479 22.4011 64.0133C22.2148 63.9787 22.0432 63.8884 21.9092 63.7545L16.454 58.2993C16.3201 58.1654 16.2298 57.994 16.1952 57.8077C16.1606 57.6215 16.1832 57.4291 16.2601 57.256L18.1171 53.0753L18.037 52.9373C16.9078 50.9945 16.0434 48.9095 15.4669 46.7376L15.426 46.5835L11.1594 44.9412C10.9826 44.8731 10.8305 44.753 10.7233 44.5968C10.6161 44.4406 10.5586 44.2557 10.5586 44.0663V40.2087C10.5586 39.9601 10.6573 39.7216 10.8331 39.5458C11.0089 39.37 11.2475 39.2712 11.4961 39.2712H15.3944V24.669H10.4013L10.3387 24.8997C9.8237 26.7979 8.08606 28.1976 6.02859 28.1976C3.56634 28.1976 1.5625 26.1937 1.5625 23.7315C1.56253 21.2691 3.56637 19.2652 6.02859 19.2652C8.08622 19.2652 9.82385 20.6651 10.3389 22.5634L10.4015 22.794H16.3318C16.5804 22.794 16.8188 22.8928 16.9946 23.0686C17.1704 23.2444 17.2693 23.4829 17.2693 23.7315V39.2712H22.3306V19.1888L22.0999 19.1262C20.2016 18.6112 18.8019 16.8735 18.8019 14.8161C18.8019 12.3538 20.8057 10.35 23.2681 10.35C25.7304 10.35 27.7342 12.3538 27.7342 14.8161C27.7342 16.8735 26.3345 18.611 24.4363 19.1262L24.2056 19.1888V39.2712H25.3688C25.6174 39.2712 25.8558 39.37 26.0316 39.5458C26.2074 39.7216 26.3063 39.9601 26.3063 40.2087C26.3063 47.7596 32.4488 53.9022 39.9998 53.9022C47.5509 53.9022 53.6934 47.7596 53.6934 40.2087C53.6934 39.9601 53.7922 39.7216 53.968 39.5458C54.1439 39.37 54.3823 39.2712 54.6309 39.2712H55.7941V19.1888L55.5634 19.1262C53.665 18.6112 52.2653 16.8735 52.2653 14.8161C52.2653 12.3538 54.2691 10.35 56.7316 10.35ZM12.4336 41.1463V43.4225L16.5553 45.0089C16.6974 45.0636 16.8241 45.1522 16.9243 45.2668C17.0245 45.3814 17.0952 45.5187 17.1304 45.6667L17.1306 45.6669C17.7064 48.087 18.665 50.3997 19.9704 52.5173C20.0503 52.647 20.0974 52.7943 20.1076 52.9463C20.1178 53.0982 20.0909 53.2503 20.0291 53.3895L18.2352 57.4287L22.7805 61.9735L26.821 60.1789C26.9601 60.1171 27.1122 60.09 27.2641 60.1002C27.416 60.1104 27.5632 60.1575 27.6929 60.2374C29.81 61.5425 32.1221 62.5012 34.5416 63.077C34.6897 63.1123 34.827 63.183 34.9416 63.2832C35.0561 63.3834 35.1446 63.5099 35.1993 63.652L36.7863 67.7747H43.214L44.8004 63.653C44.8551 63.511 44.9435 63.3843 45.0581 63.2841C45.1728 63.1839 45.3101 63.1131 45.4582 63.0779L45.6848 63.0229C48.0228 62.442 50.2573 61.5027 52.3088 60.238C52.4384 60.1581 52.5857 60.111 52.7376 60.1008C52.8895 60.0906 53.0416 60.1175 53.1807 60.1794L53.1808 60.1795L57.2198 61.9734L61.7648 57.4282L59.9702 53.3878C59.9085 53.2487 59.8816 53.0965 59.8918 52.9446C59.902 52.7926 59.9488 52.6453 60.0287 52.5157L60.0288 52.5158C61.334 50.3988 62.2926 48.0868 62.8683 45.6674C62.9035 45.5192 62.9743 45.3817 63.0745 45.2671C63.1747 45.1525 63.3014 45.0641 63.4435 45.0094L67.5662 43.4223V41.1463H55.5434L55.5208 41.4346C54.8938 49.4481 48.1715 55.7774 40 55.7774C31.8285 55.7774 25.1062 49.448 24.4792 41.4346L24.4566 41.1463H12.4336ZM42.5136 24.539C43.3019 24.539 43.9438 25.1809 43.9438 25.969V30.306H48.2808C49.069 30.306 49.7108 30.9479 49.7108 31.7362V36.7635C49.7108 37.5517 49.069 38.1936 48.2808 38.1936H43.9438V42.5306C43.9438 43.319 43.3019 43.9608 42.5136 43.9608H37.4863C36.6981 43.9608 36.0562 43.319 36.0562 42.5306V38.1936H31.7191C30.9309 38.1936 30.289 37.5517 30.289 36.7635V31.7362C30.289 30.9479 30.9309 30.306 31.7191 30.306H36.0562V25.969C36.0562 25.1808 36.6981 24.539 37.4863 24.539H42.5136ZM37.9312 26.4138V31.2434C37.9312 31.492 37.8325 31.7306 37.6567 31.9064C37.4809 32.0822 37.2424 32.1809 36.9937 32.1809H32.164V36.3185H36.9937C37.2424 36.3185 37.4809 36.4171 37.6567 36.593C37.8325 36.7688 37.9312 37.0073 37.9312 37.256V42.0857H42.0688V37.256C42.0688 37.0073 42.1675 36.7688 42.3433 36.593C42.5191 36.4171 42.7576 36.3185 43.0063 36.3185H47.8358V32.1809H43.0063C42.7576 32.1809 42.5191 32.0822 42.3433 31.9064C42.1675 31.7306 42.0688 31.492 42.0688 31.2434V26.4138H37.9312ZM6.02859 21.1402C4.59961 21.1402 3.43753 22.3024 3.4375 23.7315C3.4375 25.1605 4.5996 26.3226 6.02859 26.3226C7.45773 26.3226 8.61984 25.1605 8.61984 23.7315C8.61981 22.3024 7.45772 21.1402 6.02859 21.1402ZM73.9713 21.1402C72.5421 21.1402 71.38 22.3024 71.38 23.7315C71.38 25.1605 72.5421 26.3226 73.9713 26.3226C75.4004 26.3226 76.5625 25.1605 76.5625 23.7315C76.5625 22.3024 75.4004 21.1402 73.9713 21.1402ZM23.2683 12.225C21.8391 12.225 20.677 13.3871 20.677 14.8161C20.677 16.2452 21.8391 17.4073 23.2683 17.4073C24.6973 17.4073 25.8594 16.2452 25.8594 14.8161C25.8594 13.3871 24.6973 12.225 23.2683 12.225ZM56.7317 12.225C55.3026 12.225 54.1405 13.3871 54.1405 14.8161C54.1405 16.2452 55.3026 17.4073 56.7317 17.4073C58.1607 17.4073 59.3228 16.2452 59.3228 14.8161C59.3228 13.3871 58.1607 12.225 56.7317 12.225Z" fill="#767B89"/>
</svg>
