<svg width="80" height="80" viewBox="0 0 80 80" fill="none" xmlns="http://www.w3.org/2000/svg">
<path d="M9.5673 4.36546C3.73076 7.72123 1.92307 8.80777 1.75961 9.04816L1.53845 9.35585V35.1155V60.8655L1.85576 61.1924C2.03845 61.3847 6.11538 63.7885 12.1635 67.2597C17.6635 70.4232 24.25 74.2212 26.8077 75.6924C29.3654 77.1635 31.5865 78.4328 31.75 78.5193C32.3558 78.8366 32.5673 78.7405 37.1154 76.1251C61.5769 62.0482 62.7404 61.3751 62.9615 61.0578L63.1731 60.7405V52.5001V44.2501L64.5 43.4808C65.2211 43.0674 68.2884 41.2982 71.2981 39.5674C74.3173 37.8366 76.9808 36.2885 77.2308 36.1347C78.0384 35.6347 77.9808 36.3174 77.9808 26.5097V17.8174L77.7692 17.5001C77.6442 17.327 77.4423 17.1058 77.3077 17.0097C77.1731 16.9232 73.75 14.9328 69.6923 12.6059C63.0673 8.78854 62.2788 8.36546 61.9038 8.36546C61.5384 8.36546 60.6634 8.84623 53.8558 12.7693C47.1827 16.6155 46.2019 17.2116 46.0481 17.5001C45.875 17.8174 45.8654 18.2405 45.8654 26.0578L45.8558 34.2789L44.3461 35.1347C43.5192 35.6058 40.7884 37.1828 38.2788 38.6251C35.7788 40.0674 33.7115 41.2501 33.6923 41.2501C33.6731 41.2501 33.6442 34.0962 33.6346 25.3558C33.6058 7.69239 33.6634 9.1347 32.9327 8.64431C32.6154 8.43277 25.8173 4.5097 19.4327 0.846237C18.2211 0.153923 17.875 7.62939e-05 17.5481 7.62939e-05C17.2019 7.62939e-05 16.2115 0.538544 9.5673 4.36546ZM24.1346 6.48085C27.125 8.202 29.6154 9.6347 29.6635 9.65392C29.7308 9.67316 29.7308 9.72123 29.6635 9.78854C29.5769 9.86546 17.7404 16.7116 17.5961 16.7597C17.4615 16.8078 5.38461 9.76931 5.45191 9.702C5.49999 9.65392 8.24038 8.05777 11.5385 6.16354L17.5481 2.702L18.125 3.02892C18.4423 3.202 21.1442 4.7597 24.1346 6.48085ZM66.2115 13.5385C73.7692 17.8847 74.1442 18.1058 74.1154 18.1251C74.0673 18.1635 70.4808 20.2308 66.2308 22.6828C63.9134 24.0097 61.9711 25.0962 61.9134 25.0962C61.7404 25.0962 49.7115 18.1443 49.7692 18.0866C49.8077 18.0482 61.7788 11.1155 61.8846 11.0674C61.8942 11.0578 63.8461 12.1732 66.2115 13.5385ZM12.5769 16.8462L16.25 18.9616V35.4712C16.25 46.0385 16.2885 52.0962 16.3461 52.3174C16.3942 52.5001 16.5577 52.7693 16.7019 52.9039C16.8558 53.0385 18.5961 54.0674 20.5769 55.1828C22.5577 56.3078 25.7308 58.0962 27.6154 59.1635L31.0577 61.1058V68.1539V75.2116L30.75 75.0193C30.5769 74.9135 28.375 73.6539 25.8654 72.2116C23.3558 70.7597 19.8269 68.7308 18.0288 67.702C16.2308 66.6635 12.3461 64.4328 9.39422 62.7405L4.03845 59.6635V35.7982V11.9328L6.47114 13.3366C7.79807 14.1059 10.5481 15.6828 12.5769 16.8462ZM31.0385 27.4135L31.0096 42.8078L29.4231 43.7212C28.5481 44.2212 25.9519 45.7212 23.6538 47.0385C21.3558 48.3655 19.3269 49.5289 19.1635 49.6347L18.8461 49.827V34.4039V18.9712L20.8461 17.827C21.9423 17.202 24.6538 15.6347 26.875 14.3559C29.0961 13.077 30.9423 12.0193 30.9904 12.0193C31.0288 12.0193 31.0481 18.9424 31.0385 27.4135ZM54.4808 23.8078C57.7596 25.6924 60.4904 27.2789 60.5577 27.327C60.6442 27.4039 60.6731 28.9232 60.6731 34.3366C60.6731 38.1443 60.6442 41.2501 60.6058 41.2501C60.5577 41.2501 57.8077 39.6732 54.4711 37.7597L48.4134 34.2693L48.3846 27.327C48.375 23.327 48.4038 20.3847 48.4519 20.3847C48.5 20.3847 51.2115 21.9232 54.4808 23.8078ZM75.3846 27.3366V34.2885L72.8173 35.7693C65.6346 39.9039 63.4038 41.1828 63.2981 41.2212C63.2019 41.2597 63.1731 39.8366 63.1731 34.3174V27.3558L65.6538 25.9328C67.0096 25.1539 69.7308 23.5866 71.6827 22.4616C73.6442 21.327 75.2692 20.3943 75.3173 20.3943C75.3558 20.3847 75.3846 23.5097 75.3846 27.3366ZM56.625 41.9232C58.5769 43.0482 59.3173 43.5193 59.2211 43.577C58.1154 44.2501 32.4231 58.8751 32.3558 58.8751C32.2981 58.8751 30.0865 57.6539 27.4519 56.1635C24.8077 54.6635 22.0961 53.1347 21.4231 52.7501C20.75 52.3751 20.1923 52.0482 20.1923 52.0193C20.1923 51.9905 21.5 51.2116 23.1058 50.2885C24.7019 49.3751 28.1346 47.3943 30.7211 45.9039C33.3173 44.4135 38.0673 41.6828 41.2788 39.827L47.1346 36.4616L50.5096 38.4039C52.375 39.4712 55.125 41.0578 56.625 41.9232ZM60.6538 52.7116L60.625 59.6635L53.9423 63.5097C50.2692 65.6251 44.2981 69.0674 40.6731 71.1443C37.0481 73.2308 33.9904 75.0001 33.875 75.077L33.6538 75.2116V68.1539V61.0962L47.0481 53.4424C54.4038 49.2308 60.4904 45.7885 60.5577 45.7789C60.6538 45.7693 60.6731 47.1828 60.6538 52.7116Z" fill="#CFD6EE"/>
</svg>
