<svg width="80" height="80" viewBox="0 0 80 80" fill="none" xmlns="http://www.w3.org/2000/svg">
<path d="M46.8804 4.13794H45.5011C45.1353 4.13794 44.7845 4.28326 44.5258 4.54193C44.2671 4.8006 44.1218 5.15143 44.1218 5.51725C44.1218 5.88307 44.2671 6.2339 44.5258 6.49257C44.7845 6.75124 45.1353 6.89656 45.5011 6.89656H46.8804C47.2462 6.89656 47.5971 6.75124 47.8557 6.49257C48.1144 6.2339 48.2597 5.88307 48.2597 5.51725C48.2597 5.15143 48.1144 4.8006 47.8557 4.54193C47.5971 4.28326 47.2462 4.13794 46.8804 4.13794ZM39.9839 4.13794H33.0873C32.7215 4.13794 32.3707 4.28326 32.112 4.54193C31.8533 4.8006 31.708 5.15143 31.708 5.51725C31.708 5.88307 31.8533 6.2339 32.112 6.49257C32.3707 6.75124 32.7215 6.89656 33.0873 6.89656H39.9839C40.3497 6.89656 40.7005 6.75124 40.9592 6.49257C41.2179 6.2339 41.3632 5.88307 41.3632 5.51725C41.3632 5.15143 41.2179 4.8006 40.9592 4.54193C40.7005 4.28326 40.3497 4.13794 39.9839 4.13794ZM39.9839 75.8621C42.269 75.8621 44.1218 74.0093 44.1218 71.7241C44.1218 69.439 42.269 67.5862 39.9839 67.5862C37.6987 67.5862 35.8459 69.439 35.8459 71.7241C35.8459 74.0093 37.6987 75.8621 39.9839 75.8621ZM39.9839 70.3448C40.3497 70.3448 40.7005 70.4902 40.9592 70.7488C41.2179 71.0075 41.3632 71.3583 41.3632 71.7241C41.3632 72.09 41.2179 72.4408 40.9592 72.6995C40.7005 72.9581 40.3497 73.1035 39.9839 73.1035C39.618 73.1035 39.2672 72.9581 39.0085 72.6995C38.7499 72.4408 38.6046 72.09 38.6046 71.7241C38.6046 71.3583 38.7499 71.0075 39.0085 70.7488C39.2672 70.4902 39.618 70.3448 39.9839 70.3448ZM48.2597 73.1035H51.0183C51.3842 73.1035 51.735 72.9581 51.9937 72.6995C52.2523 72.4408 52.3977 72.09 52.3977 71.7241C52.3977 71.3583 52.2523 71.0075 51.9937 70.7488C51.735 70.4902 51.3842 70.3448 51.0183 70.3448H48.2597C47.8939 70.3448 47.5431 70.4902 47.2844 70.7488C47.0257 71.0075 46.8804 71.3583 46.8804 71.7241C46.8804 72.09 47.0257 72.4408 47.2844 72.6995C47.5431 72.9581 47.8939 73.1035 48.2597 73.1035ZM28.9494 73.1035H31.708C32.0738 73.1035 32.4246 72.9581 32.6833 72.6995C32.942 72.4408 33.0873 72.09 33.0873 71.7241C33.0873 71.3583 32.942 71.0075 32.6833 70.7488C32.4246 70.4902 32.0738 70.3448 31.708 70.3448H28.9494C28.5836 70.3448 28.2327 70.4902 27.9741 70.7488C27.7154 71.0075 27.5701 71.3583 27.5701 71.7241C27.5701 72.09 27.7154 72.4408 27.9741 72.6995C28.2327 72.9581 28.5836 73.1035 28.9494 73.1035Z" fill="#CFD6EE"/>
<path d="M62.0528 13.7931H60.6735V6.89655C60.6688 3.08931 57.5842 0.00465517 53.7769 0H26.1907C22.3835 0.00465517 19.2988 3.08931 19.2942 6.89655V13.7931H17.9149C16.3914 13.7931 15.1562 15.0283 15.1562 16.5517V35.8621C15.1562 37.3855 16.3914 38.6207 17.9149 38.6207H19.2942V73.1034C19.2988 76.9107 22.3835 79.9953 26.1907 80H53.7769C57.5842 79.9953 60.6688 76.9107 60.6735 73.1034V38.6207H62.0528C63.5762 38.6207 64.8114 37.3855 64.8114 35.8621V16.5517C64.8114 15.0283 63.5762 13.7931 62.0528 13.7931ZM22.0528 6.89655C22.0528 4.61138 23.9056 2.75862 26.1907 2.75862H53.7769C56.0621 2.75862 57.9149 4.61138 57.9149 6.89655V8.27586H22.0528V6.89655ZM22.0528 11.0345H57.9149V13.7931H22.0528V11.0345ZM57.9149 73.1034C57.9149 75.3886 56.0621 77.2414 53.7769 77.2414H26.1907C23.9056 77.2414 22.0528 75.3886 22.0528 73.1034V66.2069H57.9149V73.1034ZM57.9149 63.4483H22.0528V38.6207H57.9149V63.4483ZM62.0528 35.8621H17.9149V16.5517H62.0528V35.8621Z" fill="#CFD6EE"/>
<path d="M26.1907 45.5172H31.9619C32.2429 46.3234 32.7677 47.0221 33.4637 47.5166C34.1596 48.011 34.9922 48.2767 35.8459 48.2767C36.6996 48.2767 37.5321 48.011 38.2281 47.5166C38.924 47.0221 39.4489 46.3234 39.7298 45.5172H53.7769C54.1427 45.5172 54.4936 45.3719 54.7522 45.1132C55.0109 44.8546 55.1562 44.5037 55.1562 44.1379C55.1562 43.7721 55.0109 43.4213 54.7522 43.1626C54.4936 42.9039 54.1427 42.7586 53.7769 42.7586H39.7298C39.4489 41.9525 38.924 41.2537 38.2281 40.7593C37.5321 40.2648 36.6996 39.9992 35.8459 39.9992C34.9922 39.9992 34.1596 40.2648 33.4637 40.7593C32.7677 41.2537 32.2429 41.9525 31.9619 42.7586H26.1907C25.8249 42.7586 25.4741 42.9039 25.2154 43.1626C24.9567 43.4213 24.8114 43.7721 24.8114 44.1379C24.8114 44.5037 24.9567 44.8546 25.2154 45.1132C25.4741 45.3719 25.8249 45.5172 26.1907 45.5172ZM35.8459 42.7586C36.2117 42.7586 36.5625 42.9039 36.8212 43.1626C37.0799 43.4213 37.2252 43.7721 37.2252 44.1379C37.2252 44.5037 37.0799 44.8546 36.8212 45.1132C36.5625 45.3719 36.2117 45.5172 35.8459 45.5172C35.4801 45.5172 35.1292 45.3719 34.8706 45.1132C34.6119 44.8546 34.4666 44.5037 34.4666 44.1379C34.4666 43.7721 34.6119 43.4213 34.8706 43.1626C35.1292 42.9039 35.4801 42.7586 35.8459 42.7586ZM26.1907 55.1724H31.708C32.0738 55.1724 32.4246 55.0271 32.6833 54.7684C32.9419 54.5097 33.0873 54.1589 33.0873 53.7931C33.0873 53.4273 32.9419 53.0764 32.6833 52.8178C32.4246 52.5591 32.0738 52.4138 31.708 52.4138H26.1907C25.8249 52.4138 25.4741 52.5591 25.2154 52.8178C24.9567 53.0764 24.8114 53.4273 24.8114 53.7931C24.8114 54.1589 24.9567 54.5097 25.2154 54.7684C25.4741 55.0271 25.8249 55.1724 26.1907 55.1724ZM26.1907 60.6896H53.7769C54.1427 60.6896 54.4936 60.5443 54.7522 60.2856C55.0109 60.027 55.1562 59.6761 55.1562 59.3103C55.1562 58.9445 55.0109 58.5937 54.7522 58.335C54.4936 58.0763 54.1427 57.931 53.7769 57.931H26.1907C25.8249 57.931 25.4741 58.0763 25.2154 58.335C24.9567 58.5937 24.8114 58.9445 24.8114 59.3103C24.8114 59.6761 24.9567 60.027 25.2154 60.2856C25.4741 60.5443 25.8249 60.6896 26.1907 60.6896ZM35.1947 32.9405C35.4149 33.0585 35.6631 33.1144 35.9127 33.1023C36.1622 33.0902 36.4038 33.0105 36.6116 32.8717L44.8874 27.3545C45.0762 27.2284 45.231 27.0577 45.3381 26.8576C45.4451 26.6574 45.5011 26.4339 45.5011 26.2069C45.5011 25.9799 45.4451 25.7564 45.3381 25.5562C45.231 25.356 45.0762 25.1853 44.8874 25.0593L36.6116 19.542C36.4038 19.4035 36.1624 19.324 35.913 19.3119C35.6636 19.2998 35.4156 19.3557 35.1954 19.4735C34.9752 19.5913 34.7912 19.7666 34.6628 19.9808C34.5345 20.1949 34.4666 20.4399 34.4666 20.6896V31.7241C34.4665 31.9738 34.5341 32.2188 34.6624 32.433C34.7906 32.6472 34.9746 32.8226 35.1947 32.9405ZM37.2252 23.2677L41.6393 26.2069L37.2252 29.146V23.2677Z" fill="#CFD6EE"/>
</svg>
