<svg width="80" height="80" viewBox="0 0 80 80" fill="none" xmlns="http://www.w3.org/2000/svg">
<g clip-path="url(#clip0_123_3504)">
<path d="M74.6653 1.33325H5.33469C2.39328 1.33325 0 3.72669 0 6.66794V50.6665C0.000124241 51.0201 0.140634 51.3592 0.390646 51.6092C0.640658 51.8592 0.979711 51.9997 1.33328 51.9998H78.6666C79.0201 51.9997 79.3592 51.8592 79.6092 51.6092C79.8592 51.3592 79.9997 51.0201 79.9998 50.6665V6.66794C80 3.72669 77.6067 1.33325 74.6653 1.33325ZM77.3333 49.3333H2.66672V6.66794C2.66672 5.19591 3.86406 3.99997 5.33469 3.99997H74.6653C76.1359 3.99997 77.3333 5.19591 77.3333 6.66794V49.3333Z" fill="#CFD6EE"/>
<path d="M78.6667 49.3333H1.33328C0.979711 49.3334 0.640658 49.4739 0.390646 49.7239C0.140634 49.9739 0.000124241 50.313 0 50.6665L0 57.3318C0 60.2733 2.39328 62.6665 5.33469 62.6665H74.6653C77.6067 62.6665 80 60.2733 80 57.3318V50.6665C79.9999 50.313 79.8594 49.9739 79.6094 49.7239C79.3593 49.4739 79.0203 49.3334 78.6667 49.3333ZM77.3333 57.332C77.3333 58.804 76.1359 60 74.6653 60H5.33469C3.86406 60 2.66672 58.804 2.66672 57.332V52H77.3334L77.3333 57.332Z" fill="#CFD6EE"/>
<path d="M44 54.6667H36C35.2641 54.6667 34.6667 55.2641 34.6667 56C34.6667 56.736 35.2641 57.3333 36 57.3333H44C44.7359 57.3333 45.3333 56.736 45.3333 56C45.3333 55.2641 44.7359 54.6667 44 54.6667ZM73.3333 6.66675H6.66672C6.31315 6.66687 5.97409 6.80738 5.72408 7.05739C5.47407 7.30741 5.33356 7.64646 5.33344 8.00003V50.6667C5.33356 51.0203 5.47407 51.3594 5.72408 51.6094C5.97409 51.8594 6.31315 51.9999 6.66672 52H73.3334C73.687 51.9999 74.0261 51.8594 74.2761 51.6094C74.5261 51.3594 74.6666 51.0203 74.6667 50.6667V8.00003C74.6667 7.26409 74.0694 6.66675 73.3333 6.66675ZM72 49.3333H8V9.33331H72V49.3333ZM57.3333 70.6667H22.6667C20.4614 70.6667 18.6667 72.4614 18.6667 74.6667C18.6667 76.8721 20.4614 78.6667 22.6667 78.6667H57.3334C59.5387 78.6667 61.3334 76.8721 61.3334 74.6667C61.3334 72.4614 59.5386 70.6667 57.3333 70.6667ZM57.3333 76H22.6667C21.9308 76 21.3334 75.4014 21.3334 74.6667C21.3334 73.9321 21.9308 73.3335 22.6667 73.3335H57.3334C58.0694 73.3335 58.6667 73.9321 58.6667 74.6667C58.6667 75.4014 58.0694 76 57.3333 76Z" fill="#CFD6EE"/>
<path d="M54.6667 70.6667C50.2427 70.6667 48 67.5267 48 61.3334C47.9999 60.9799 47.8594 60.6408 47.6094 60.3908C47.3593 60.1408 47.0203 60.0003 46.6667 60.0002H33.3334C32.9799 60.0003 32.6408 60.1408 32.3908 60.3908C32.1408 60.6408 32.0003 60.9799 32.0002 61.3334C32.0002 67.5267 29.7575 70.6667 25.3334 70.6667C24.9799 70.6668 24.6408 70.8074 24.3908 71.0574C24.1408 71.3074 24.0003 71.6464 24.0002 72C24.0003 72.3536 24.1408 72.6926 24.3908 72.9426C24.6408 73.1926 24.9799 73.3332 25.3334 73.3333H54.6667C55.0203 73.3332 55.3593 73.1926 55.6094 72.9426C55.8594 72.6926 55.9999 72.3536 56 72C55.9999 71.6464 55.8594 71.3074 55.6094 71.0574C55.3593 70.8074 55.0203 70.6668 54.6667 70.6667ZM31.828 70.6667C33.4694 68.8481 34.4359 66.14 34.6306 62.6667H45.3706C45.5639 66.14 46.5306 68.8481 48.1733 70.6667H31.828ZM63.712 40.6186L60.4934 37.4L62.2841 35.6094C62.4473 35.4462 62.5654 35.2434 62.6268 35.0209C62.6883 34.7985 62.691 34.5638 62.6347 34.34C62.5781 34.1165 62.4646 33.9115 62.3052 33.7449C62.1459 33.5783 61.9461 33.4558 61.7253 33.3894L48.392 29.3894C48.1615 29.3201 47.9165 29.3147 47.6831 29.3736C47.4498 29.4326 47.2367 29.5537 47.0667 29.7241C46.8962 29.894 46.7749 30.107 46.716 30.3404C46.657 30.5738 46.6626 30.8189 46.732 31.0494L50.732 44.3827C50.798 44.6038 50.9203 44.804 51.087 44.9636C51.2536 45.1232 51.4589 45.2368 51.6827 45.2933C52.1359 45.4053 52.62 45.2745 52.952 44.9427L54.8373 43.0559L58.0559 46.2759C58.3053 46.5266 58.6453 46.6666 58.9986 46.6666C59.3519 46.6666 59.6919 46.5266 59.9412 46.2759L63.7119 42.5039C63.8358 42.3802 63.9342 42.2333 64.0013 42.0715C64.0684 41.9098 64.1029 41.7364 64.1029 41.5613C64.1029 41.3862 64.0684 41.2128 64.0014 41.051C63.9343 40.8893 63.836 40.7423 63.712 40.6186ZM58.9986 43.448L56.068 40.5159C55.9065 40.3541 55.7147 40.2258 55.5035 40.1384C55.2923 40.051 55.0659 40.0062 54.8373 40.0066C54.6089 40.0063 54.3826 40.051 54.1715 40.1381C53.9603 40.2253 53.7684 40.3532 53.6067 40.5145L52.6441 41.4772L49.9973 32.6545L58.82 35.3012L57.788 36.3333C57.6479 36.4733 57.5369 36.6396 57.4614 36.8227C57.3859 37.0058 57.3473 37.202 57.348 37.4C57.3472 37.5985 57.3859 37.7951 57.4619 37.9785C57.5379 38.1619 57.6496 38.3283 57.7906 38.468L60.8839 41.5613L58.9986 43.448ZM56 12H18.6667C18.3131 12.0001 17.9741 12.1406 17.7241 12.3906C17.4741 12.6407 17.3336 12.9797 17.3334 13.3333V20C17.3336 20.3536 17.4741 20.6926 17.7241 20.9426C17.9741 21.1926 18.3131 21.3332 18.6667 21.3333H56C56.3536 21.3332 56.6926 21.1926 56.9426 20.9426C57.1926 20.6926 57.3332 20.3536 57.3333 20V13.3333C57.3332 12.9797 57.1926 12.6407 56.9426 12.3906C56.6926 12.1406 56.3536 12.0001 56 12ZM54.6667 18.6667H20V14.6667H54.6667V18.6667ZM34.6667 26.6667H24C23.6464 26.6668 23.3074 26.8074 23.0574 27.0574C22.8074 27.3074 22.6668 27.6464 22.6667 28V33.3333C22.6668 33.6868 22.8074 34.0259 23.0574 34.2759C23.3074 34.5259 23.6464 34.6664 24 34.6666H34.6667C35.0203 34.6664 35.3593 34.5259 35.6094 34.2759C35.8594 34.0259 35.9999 33.6868 36 33.3333V28C35.9999 27.6464 35.8594 27.3074 35.6094 27.0574C35.3593 26.8074 35.0203 26.6668 34.6667 26.6667ZM33.3333 32H25.3333V29.3333H33.3333V32Z" fill="#CFD6EE"/>
<path d="M56 12H18.6667C18.3131 12.0001 17.9741 12.1406 17.7241 12.3906C17.4741 12.6407 17.3336 12.9797 17.3334 13.3333V38.6666C17.3336 39.0201 17.4741 39.3592 17.7241 39.6092C17.9741 39.8592 18.3131 39.9997 18.6667 39.9998H50.4081C50.616 40.0002 50.821 39.9518 51.0068 39.8584C51.1925 39.7651 51.3537 39.6295 51.4775 39.4625C51.6018 39.2957 51.6854 39.1021 51.7215 38.8972C51.7576 38.6923 51.7453 38.4818 51.6855 38.2825L49.9975 32.6545L55.6175 34.3412C55.8165 34.4011 56.0268 34.4135 56.2315 34.3774C56.4362 34.3412 56.6296 34.2576 56.7961 34.1333C56.963 34.0094 57.0985 33.8482 57.1918 33.6624C57.2852 33.4767 57.3337 33.2717 57.3334 33.0639V13.3333C57.3333 12.5973 56.7359 12 56 12ZM54.6667 31.272L48.3906 29.3894C48.1601 29.3201 47.9151 29.3147 47.6817 29.3736C47.4484 29.4326 47.2353 29.5537 47.0653 29.7241C46.8947 29.8942 46.7735 30.1075 46.7146 30.3412C46.6556 30.5748 46.6612 30.82 46.7306 31.0508L48.6159 37.3334H20V14.6667H54.6667V31.272Z" fill="#CFD6EE"/>
</g>
<defs>
<clipPath id="clip0_123_3504">
<rect width="80" height="80" fill="white"/>
</clipPath>
</defs>
</svg>
